<svg xmlns="http://www.w3.org/2000/svg" xmlns:xlink="http://www.w3.org/1999/xlink" viewBox="0 0 114.37 114.37"><defs><style>.cls-1{fill:none;}.cls-2{clip-path:url(#clip-path);}.cls-3{fill:url(#linear-gradient);}.cls-4{fill:#fff;}</style><clipPath id="clip-path" transform="translate(10.75 10.75)"><path class="cls-1" d="M0,46.43A46.44,46.44,0,1,0,46.43,0,46.44,46.44,0,0,0,0,46.43"/></clipPath><linearGradient id="linear-gradient" x1="-1139.88" y1="1227.63" x2="-1138.88" y2="1227.63" gradientTransform="matrix(-84.47, 0, 0, 84.47, -96174.09, -103646.81)" gradientUnits="userSpaceOnUse"><stop offset="0" stop-color="#9d6eae"/><stop offset="0.01" stop-color="#9d6eae"/><stop offset="0.05" stop-color="#9569a8"/><stop offset="0.37" stop-color="#5d487c"/><stop offset="0.65" stop-color="#342f5c"/><stop offset="0.87" stop-color="#1a2148"/><stop offset="1" stop-color="#111b41"/></linearGradient></defs><g id="Layer_2" data-name="Layer 2"><g id="Layer_1-2" data-name="Layer 1"><g class="cls-2"><rect class="cls-3" x="-5.1" y="-5.1" width="103.06" height="103.06" transform="translate(5.65 97.89) rotate(-83.31)"/></g><path class="cls-4" d="M18.79,29.33,37.28,71.09a1,1,0,0,1,0,.83L36,74.81h-.73l-16-36.32q-3.73-8.4-8.55-9.48v-.78a71.83,71.83,0,0,0,7.26.5,1,1,0,0,1,.9.6m24.33,0L60.66,71.08a1,1,0,0,1,0,.77l-1.18,3h-.9L48.43,50.75a1,1,0,0,0-1.86,0L40.14,65.48a1,1,0,0,1-1.85,0l-15.6-35.4a1,1,0,0,1,.88-1.42l2.82-.09,1.89-.13L31,28.23V29c-1.8.71-2.7,1.83-2.7,3.34s.7,3.87,2.1,7L38.3,57.3a1,1,0,0,0,1.85,0l5.47-12.4a1,1,0,0,0,0-.8l-2.53-6a22.36,22.36,0,0,0-3.48-6.18A10.57,10.57,0,0,0,34.76,29v-.78c2.6.27,5.09.43,7.47.5a1,1,0,0,1,.89.62M54.46,39.78l7.09,17a1,1,0,0,0,1.87,0l5.85-14.26c1.52-3.7,2.28-6.54,2.28-8.55A4.58,4.58,0,0,0,67.77,29v-.78q4.77.52,7,.52a52.84,52.84,0,0,0,7.52-.52V29a15,15,0,0,0-4.77,4.12,49.08,49.08,0,0,0-4.59,9.14L63.42,65.22a1,1,0,0,1-1.87,0L46.82,30.09a1,1,0,0,1,.89-1.4c2.9-.13,5.46-.28,7.7-.46V29q-2.92,1-2.92,3.6,0,2.45,2,7.17" transform="translate(10.75 10.75)"/><path class="cls-4" d="M53.92,64.61H45.23a.52.52,0,0,1-.48-.31l-.87-2a.51.51,0,0,1,.47-.7h8.27Z" transform="translate(10.75 10.75)"/></g></g></svg>