<svg xmlns="http://www.w3.org/2000/svg" xmlns:xlink="http://www.w3.org/1999/xlink" viewBox="0 0 150.53 142.53"><defs><style>.cls-1{fill:none;}.cls-2{clip-path:url(#clip-path);}.cls-3{fill:url(#linear-gradient);}.cls-4{fill:#fff;}</style><clipPath id="clip-path" transform="translate(0 10.75)"><path class="cls-1" d="M28.83,46.43A46.44,46.44,0,1,0,75.27,0,46.44,46.44,0,0,0,28.83,46.43"/></clipPath><linearGradient id="linear-gradient" x1="-1111.05" y1="1227.63" x2="-1110.05" y2="1227.63" gradientTransform="matrix(-84.47, 0, 0, 84.47, -93709.92, -103646.81)" gradientUnits="userSpaceOnUse"><stop offset="0" stop-color="#9d6eae"/><stop offset="0.01" stop-color="#9d6eae"/><stop offset="0.05" stop-color="#9569a8"/><stop offset="0.37" stop-color="#5d487c"/><stop offset="0.65" stop-color="#342f5c"/><stop offset="0.87" stop-color="#1a2148"/><stop offset="1" stop-color="#111b41"/></linearGradient></defs><g id="Layer_2" data-name="Layer 2"><g id="Layer_1-2" data-name="Layer 1"><g class="cls-2"><rect class="cls-3" x="23.74" y="-5.1" width="103.06" height="103.06" transform="translate(20.38 126.53) rotate(-83.31)"/></g><path class="cls-4" d="M47.62,29.33,66.11,71.09a1,1,0,0,1,0,.83l-1.32,2.89h-.73L48,38.49c-2.49-5.6-5.34-8.77-8.54-9.48v-.78a71.33,71.33,0,0,0,7.25.5,1,1,0,0,1,.9.6m24.33,0L89.49,71.08a1.08,1.08,0,0,1,0,.77l-1.18,3h-.9L77.26,50.75a1,1,0,0,0-1.86,0L69,65.48a1,1,0,0,1-1.86,0l-15.6-35.4a1,1,0,0,1,.88-1.42l2.82-.09,1.89-.13,2.75-.22V29c-1.81.71-2.71,1.83-2.71,3.34s.7,3.87,2.11,7l7.87,17.9a1,1,0,0,0,1.85,0l5.47-12.4a1,1,0,0,0,0-.8l-2.53-6a22.1,22.1,0,0,0-3.48-6.18A10.57,10.57,0,0,0,63.59,29v-.78c2.6.27,5.09.43,7.47.5a1,1,0,0,1,.89.62M83.29,39.78l7.09,17a1,1,0,0,0,1.87,0l5.86-14.26c1.51-3.7,2.27-6.54,2.27-8.55A4.58,4.58,0,0,0,96.6,29v-.78q4.77.52,7,.52a52.7,52.7,0,0,0,7.51-.52V29a15.12,15.12,0,0,0-4.77,4.12,49.08,49.08,0,0,0-4.59,9.14L92.25,65.22a1,1,0,0,1-1.87,0L75.66,30.09a1,1,0,0,1,.89-1.4q4.33-.2,7.69-.46V29q-2.92,1-2.92,3.6,0,2.45,2,7.17" transform="translate(0 10.75)"/><path class="cls-4" d="M82.75,64.61H74.06a.5.5,0,0,1-.47-.31l-.87-2a.5.5,0,0,1,.46-.7h8.27Z" transform="translate(0 10.75)"/><path class="cls-4" d="M18.47,118.16H13.31L12.09,114H5.49l-1.28,4.21H0L6.53,97.77h5.56ZM11,110.23,8.78,103l-2.16,7.19Z" transform="translate(0 10.75)"/><polygon class="cls-4" points="38.26 124.85 38.26 128.91 25.32 128.91 25.32 108.52 30.04 108.52 30.04 124.85 38.26 124.85"/><rect class="cls-4" x="45.1" y="108.52" width="4.77" height="20.39"/><polygon class="cls-4" points="63.37 112.48 63.37 117.1 71.16 117.1 71.16 120.93 63.37 120.93 63.37 128.91 58.6 128.91 58.6 108.52 73.14 108.52 73.14 112.48 63.37 112.48"/><polygon class="cls-4" points="98.88 128.91 94.21 128.91 90.86 115.41 90.81 115.41 87.59 128.91 82.92 128.91 77.68 108.52 82.54 108.52 85.42 121.21 85.66 122.25 85.76 122.25 89.06 108.52 93.45 108.52 96.85 122.25 96.89 122.25 97.09 121.36 100.06 108.52 103.98 108.52 98.88 128.91"/><path class="cls-4" d="M127.73,118.16h-5.16L121.35,114h-6.6l-1.28,4.21h-4.21l6.52-20.39h5.57Zm-7.51-7.93L118,103l-2.16,7.19Z" transform="translate(0 10.75)"/><polygon class="cls-4" points="144.16 120.32 144.16 128.91 139.39 128.91 139.39 120.32 132.97 108.52 138.5 108.52 142.41 116.25 146.28 108.52 150.53 108.52 144.16 120.32"/><path class="cls-4" d="M16.94,129.52a2.5,2.5,0,0,1-.17.94,1.82,1.82,0,0,1-.52.71,2.59,2.59,0,0,1-.88.44,4.78,4.78,0,0,1-1.28.15h-.56l-.66,0-.66,0-.57-.05v-7.86c.31,0,.66-.06,1-.07l1.1,0a5.76,5.76,0,0,1,1.15.11,2.75,2.75,0,0,1,.89.33,1.66,1.66,0,0,1,.56.59,1.68,1.68,0,0,1,.2.86,2.2,2.2,0,0,1-.11.71,2.09,2.09,0,0,1-.3.53,1.3,1.3,0,0,1-.44.37,2.14,2.14,0,0,1-.52.22v0a2.31,2.31,0,0,1,.78.29,2,2,0,0,1,.53.47,1.9,1.9,0,0,1,.31.62,2.78,2.78,0,0,1,.1.72M15,125.75a1.17,1.17,0,0,0-.38-1,1.8,1.8,0,0,0-1.08-.28h-.38v2.56h.51a3.27,3.27,0,0,0,.53,0,1.65,1.65,0,0,0,.41-.13.53.53,0,0,0,.14-.12.63.63,0,0,0,.13-.2,1.93,1.93,0,0,0,.09-.33,3.23,3.23,0,0,0,0-.48m.35,3.67a1.49,1.49,0,0,0-.44-1.16,1.79,1.79,0,0,0-1.27-.4h-.48v3l.11,0h.76l.33,0a1.24,1.24,0,0,0,.29-.06.73.73,0,0,0,.21-.07,1,1,0,0,0,.17-.14.77.77,0,0,0,.16-.24,1.16,1.16,0,0,0,.11-.37,3.13,3.13,0,0,0,0-.58" transform="translate(0 10.75)"/><path class="cls-4" d="M26.41,128.87a2.83,2.83,0,0,1-.22,1.12,2.41,2.41,0,0,1-.65.93,3.19,3.19,0,0,1-1.07.63,4.48,4.48,0,0,1-1.49.23,5.31,5.31,0,0,1-1.25-.14,2.41,2.41,0,0,1-1-.48,2.07,2.07,0,0,1-.62-.87,3.58,3.58,0,0,1-.22-1.31v-5.26h1.54v5.42a3.41,3.41,0,0,0,.1.94,1.19,1.19,0,0,0,.31.54,1,1,0,0,0,.51.24,3.76,3.76,0,0,0,.71.06,3,3,0,0,0,.84-.1,1.84,1.84,0,0,0,.58-.28.79.79,0,0,0,.3-.54,5.8,5.8,0,0,0,.06-.9v-5.38h1.53Z" transform="translate(0 10.75)"/><path class="cls-4" d="M34.47,129.34a2,2,0,0,1-.21.87,2.3,2.3,0,0,1-.59.78,2.91,2.91,0,0,1-.93.57,3.24,3.24,0,0,1-1.23.22,4.88,4.88,0,0,1-.68,0,5,5,0,0,1-.58-.12,4.56,4.56,0,0,1-.52-.18c-.17-.07-.33-.15-.5-.24l.38-1.18a3.27,3.27,0,0,0,.44.25l.59.24c.21.07.42.13.64.18a2.6,2.6,0,0,0,.59.08,3,3,0,0,0,.49,0,2.42,2.42,0,0,0,.35-.11.54.54,0,0,0,.28-.35,2,2,0,0,0,.1-.71.86.86,0,0,0-.26-.65,2.74,2.74,0,0,0-.67-.42l-.87-.35a3.73,3.73,0,0,1-.86-.46,2.21,2.21,0,0,1-.67-.72,2.15,2.15,0,0,1-.27-1.15,1.74,1.74,0,0,1,.18-.73,2.35,2.35,0,0,1,.53-.71,2.86,2.86,0,0,1,.85-.53,3.19,3.19,0,0,1,1.15-.2c.35,0,.68,0,1,0a9,9,0,0,1,.93.14L33.89,125l-.47-.15-.54-.12-.53-.08-.46,0-.41,0a.66.66,0,0,0-.34.12.44.44,0,0,0-.21.29,1.53,1.53,0,0,0-.07.51.75.75,0,0,0,.16.5,1.43,1.43,0,0,0,.41.35,3.36,3.36,0,0,0,.57.27l.67.27a5.08,5.08,0,0,1,.66.33,2.32,2.32,0,0,1,.58.45,2.45,2.45,0,0,1,.41.66,2.65,2.65,0,0,1,.15.94" transform="translate(0 10.75)"/><rect class="cls-4" x="37.48" y="134.47" width="1.53" height="7.95"/><path class="cls-4" d="M48.74,131.71l-5.33-5.57h0c0,.46,0,.89,0,1.28,0,.17,0,.33,0,.5v.46c0,.14,0,.27,0,.38v2.91h-.9v-8h.68l5.34,5.55c0-.42,0-.82,0-1.2v-.48c0-.17,0-.32,0-.47s0-.29,0-.41v-2.93h.9v8Z" transform="translate(0 10.75)"/><polygon class="cls-4" points="57.5 142.42 52.96 142.42 52.96 134.47 57.35 134.47 57.27 135.28 54.5 135.32 54.5 137.9 57.11 137.94 57.04 138.67 54.5 138.73 54.5 141.57 57.57 141.63 57.5 142.42"/><path class="cls-4" d="M65.14,129.34a2,2,0,0,1-.21.87,2.44,2.44,0,0,1-.59.78,2.85,2.85,0,0,1-.94.57,3.17,3.17,0,0,1-1.23.22,4.73,4.73,0,0,1-.67,0,4.56,4.56,0,0,1-.58-.12,4,4,0,0,1-.52-.18,4.59,4.59,0,0,1-.5-.24l.38-1.18a3.08,3.08,0,0,0,.43.25l.59.24c.22.07.43.13.65.18a2.6,2.6,0,0,0,.59.08,3.11,3.11,0,0,0,.49,0,2.42,2.42,0,0,0,.35-.11.58.58,0,0,0,.28-.35,2.28,2.28,0,0,0,.1-.71.83.83,0,0,0-.27-.65,2.56,2.56,0,0,0-.67-.42l-.86-.35a4,4,0,0,1-.87-.46,2.21,2.21,0,0,1-.67-.72,2.25,2.25,0,0,1-.26-1.15,1.74,1.74,0,0,1,.18-.73,2.32,2.32,0,0,1,.52-.71,2.92,2.92,0,0,1,.86-.53,3.19,3.19,0,0,1,1.15-.2c.35,0,.68,0,1,0a8.84,8.84,0,0,1,.92.14L64.55,125l-.47-.15-.53-.12-.53-.08-.46,0-.41,0a.73.73,0,0,0-.35.12.51.51,0,0,0-.21.29,1.88,1.88,0,0,0-.06.51.8.8,0,0,0,.15.5,1.58,1.58,0,0,0,.41.35,3.48,3.48,0,0,0,.58.27l.66.27a4.62,4.62,0,0,1,.67.33,2.46,2.46,0,0,1,.57.45,2.23,2.23,0,0,1,.41.66,2.43,2.43,0,0,1,.16.94" transform="translate(0 10.75)"/><path class="cls-4" d="M72.7,129.34a2,2,0,0,1-.21.87,2.47,2.47,0,0,1-.6.78,2.8,2.8,0,0,1-.93.57,3.24,3.24,0,0,1-1.23.22,4.73,4.73,0,0,1-.67,0,4.56,4.56,0,0,1-.58-.12,4,4,0,0,1-.52-.18,4.59,4.59,0,0,1-.5-.24l.37-1.18a3.27,3.27,0,0,0,.44.25l.59.24c.21.07.43.13.64.18a2.67,2.67,0,0,0,.59.08,3.26,3.26,0,0,0,.5,0,2.89,2.89,0,0,0,.35-.11.57.57,0,0,0,.27-.35,2,2,0,0,0,.11-.71.83.83,0,0,0-.27-.65,2.56,2.56,0,0,0-.67-.42l-.86-.35a3.8,3.8,0,0,1-.87-.46A2.21,2.21,0,0,1,68,127a2.15,2.15,0,0,1-.27-1.15,1.74,1.74,0,0,1,.18-.73,2.53,2.53,0,0,1,.53-.71,2.86,2.86,0,0,1,.85-.53,3.24,3.24,0,0,1,1.16-.2c.34,0,.68,0,1,0a9,9,0,0,1,.93.14L72.11,125l-.47-.15-.53-.12-.53-.08-.46,0-.42,0a.7.7,0,0,0-.34.12.44.44,0,0,0-.21.29,1.85,1.85,0,0,0-.07.51.81.81,0,0,0,.16.5,1.43,1.43,0,0,0,.41.35,3.48,3.48,0,0,0,.58.27l.66.27a4.07,4.07,0,0,1,.66.33,2.32,2.32,0,0,1,.58.45,2.23,2.23,0,0,1,.41.66,2.64,2.64,0,0,1,.16.94" transform="translate(0 10.75)"/><path class="cls-4" d="M138.89,129.34a2,2,0,0,1-.21.87,2.3,2.3,0,0,1-.59.78,2.85,2.85,0,0,1-.94.57,3.16,3.16,0,0,1-1.22.22,4.79,4.79,0,0,1-.68,0,5,5,0,0,1-.58-.12,4.56,4.56,0,0,1-.52-.18c-.17-.07-.33-.15-.5-.24L134,130a3.08,3.08,0,0,0,.43.25l.6.24c.21.07.42.13.64.18a2.6,2.6,0,0,0,.59.08,3.11,3.11,0,0,0,.49,0,2.42,2.42,0,0,0,.35-.11.54.54,0,0,0,.28-.35,2,2,0,0,0,.1-.71.83.83,0,0,0-.27-.65,2.49,2.49,0,0,0-.66-.42l-.87-.35a4,4,0,0,1-.87-.46,2.18,2.18,0,0,1-.66-.72,2.15,2.15,0,0,1-.27-1.15,1.74,1.74,0,0,1,.18-.73,2.35,2.35,0,0,1,.53-.71,2.86,2.86,0,0,1,.85-.53,3.19,3.19,0,0,1,1.15-.2c.35,0,.68,0,1,0a9,9,0,0,1,.93.14L138.3,125l-.47-.15-.53-.12-.53-.08-.46,0-.41,0a.66.66,0,0,0-.34.12.48.48,0,0,0-.22.29,1.88,1.88,0,0,0-.06.51.8.8,0,0,0,.15.5,1.58,1.58,0,0,0,.41.35,3.9,3.9,0,0,0,.58.27c.22.09.44.17.66.27a4.62,4.62,0,0,1,.67.33,2.51,2.51,0,0,1,.58.45,2.45,2.45,0,0,1,.41.66,2.65,2.65,0,0,1,.15.94" transform="translate(0 10.75)"/><path class="cls-4" d="M84.3,129.34a2,2,0,0,1-.21.87,2.3,2.3,0,0,1-.59.78,2.85,2.85,0,0,1-.94.57,3.16,3.16,0,0,1-1.22.22,4.79,4.79,0,0,1-.68,0,5,5,0,0,1-.58-.12,4.56,4.56,0,0,1-.52-.18c-.17-.07-.33-.15-.5-.24l.38-1.18a2.74,2.74,0,0,0,.44.25l.59.24c.21.07.42.13.64.18a2.6,2.6,0,0,0,.59.08,3.11,3.11,0,0,0,.49,0,2.42,2.42,0,0,0,.35-.11.54.54,0,0,0,.28-.35,2,2,0,0,0,.1-.71.86.86,0,0,0-.26-.65,2.74,2.74,0,0,0-.67-.42l-.87-.35a4,4,0,0,1-.87-.46,2.18,2.18,0,0,1-.66-.72,2.15,2.15,0,0,1-.27-1.15,1.74,1.74,0,0,1,.18-.73,2.35,2.35,0,0,1,.53-.71,2.86,2.86,0,0,1,.85-.53,3.19,3.19,0,0,1,1.15-.2c.35,0,.68,0,1,0a9,9,0,0,1,.93.14L83.71,125l-.47-.15-.53-.12-.53-.08-.46,0-.41,0a.66.66,0,0,0-.34.12.48.48,0,0,0-.22.29,1.88,1.88,0,0,0-.06.51.8.8,0,0,0,.15.5,1.58,1.58,0,0,0,.41.35,3.9,3.9,0,0,0,.58.27l.67.27a5.08,5.08,0,0,1,.66.33,2.51,2.51,0,0,1,.58.45,2.45,2.45,0,0,1,.41.66,2.65,2.65,0,0,1,.15.94" transform="translate(0 10.75)"/><polygon class="cls-4" points="91.85 142.42 87.31 142.42 87.31 134.47 91.69 134.47 91.62 135.28 88.84 135.32 88.84 137.9 91.45 137.94 91.38 138.67 88.84 138.73 88.84 141.57 91.92 141.63 91.85 142.42"/><path class="cls-4" d="M97,128.39h-.51v3.28H94.93v-7.93l1-.06,1.12,0a3.5,3.5,0,0,1,2.09.53,1.92,1.92,0,0,1,.71,1.65,2.86,2.86,0,0,1-.12.87,2.4,2.4,0,0,1-.32.64,2.06,2.06,0,0,1-.46.47,3.65,3.65,0,0,1-.54.32c.22.41.44.79.64,1.15a8.72,8.72,0,0,0,.61.95,3.46,3.46,0,0,0,.62.64,1.11,1.11,0,0,0,.68.24h0v.51a3.26,3.26,0,0,1-.42.1,4.09,4.09,0,0,1-.53,0,3.13,3.13,0,0,1-.73-.08,1.53,1.53,0,0,1-.62-.34,3.46,3.46,0,0,1-.61-.76,14.44,14.44,0,0,1-.74-1.35Zm-.24-.78a2.51,2.51,0,0,0,.62-.08,1.74,1.74,0,0,0,.47-.2,1.25,1.25,0,0,0,.17-.16,1,1,0,0,0,.16-.25,2.23,2.23,0,0,0,.11-.4,3.39,3.39,0,0,0,0-.6,2.2,2.2,0,0,0-.09-.68,1,1,0,0,0-.27-.44,1,1,0,0,0-.45-.25,2.77,2.77,0,0,0-.61-.07h-.21l-.21,0v3.1Z" transform="translate(0 10.75)"/><path class="cls-4" d="M108.92,123.72h.93l-2.79,7.95h-1.5l-2.84-7.95h1.66l1.43,4.29c.11.32.21.64.31,1l.27.85c.09.29.17.57.25.84.09-.32.19-.64.29-1l.28-.9q.15-.48.3-.9Z" transform="translate(0 10.75)"/><rect class="cls-4" x="112.51" y="134.47" width="1.53" height="7.95"/><path class="cls-4" d="M120.61,131.78a3.48,3.48,0,0,1-1.51-.3,2.67,2.67,0,0,1-1-.84,3.9,3.9,0,0,1-.56-1.31,7.36,7.36,0,0,1-.18-1.69,4.57,4.57,0,0,1,.18-1.34,3.54,3.54,0,0,1,.47-1,3.06,3.06,0,0,1,.68-.75,4,4,0,0,1,.83-.51,4.17,4.17,0,0,1,.89-.28,5.65,5.65,0,0,1,.89-.08h.57l.57,0,.53.07.39.07-.28,1.13a3.77,3.77,0,0,0-.44-.1l-.61-.11-.64-.09-.52,0h-.41l-.33,0a1.25,1.25,0,0,0-.29.11,1.34,1.34,0,0,0-.27.17,1.39,1.39,0,0,0-.48,1,10.44,10.44,0,0,0-.12,1.74,4.93,4.93,0,0,0,.47,2.43,1.64,1.64,0,0,0,1.53.82,7.76,7.76,0,0,0,1.24-.1,7.17,7.17,0,0,0,1.17-.28v.66a4.35,4.35,0,0,1-.63.25c-.23.07-.46.13-.7.18a5.84,5.84,0,0,1-.73.11,5.58,5.58,0,0,1-.7,0" transform="translate(0 10.75)"/><polygon class="cls-4" points="131.01 142.42 126.47 142.42 126.47 134.47 130.86 134.47 130.78 135.28 128 135.32 128 137.9 130.62 137.94 130.55 138.67 128 138.73 128 141.57 131.08 141.63 131.01 142.42"/></g></g></svg>